<?xml version="1.0" encoding="UTF-8" standalone="no"?>
<!-- Created with Inkscape (http://www.inkscape.org/) -->

<svg
   width="16.000008"
   height="16.000011"
   viewBox="0 0 16.000008 16.000011"
   version="1.1"
   id="svg1"
   xmlns="http://www.w3.org/2000/svg"
   xmlns:svg="http://www.w3.org/2000/svg">
  <defs
     id="defs1" />
  <g
     id="layer1">
    <path
       d="m 10.794278,18.688589 q -1.8713387,1.041009 -4.0401083,1.041009 -2.9990984,0 -4.8828297,-2.441415 Q 1.700595e-6,14.834375 1.700595e-6,10.695124 1.700595e-6,5.7255433 1.8465541,2.8627675 3.7054994,-8.3055347e-6 6.7045979,-8.3055347e-6 q 2.776025,0 4.5234331,2.2679133055347 1.747409,2.2555203 1.747409,6.0849477 0,2.8627763 -1.152546,4.7341143 -1.140153,1.871338 -2.9619196,1.871338 -1.2516898,0 -1.5986929,-1.474763 -0.7063993,1.474763 -2.007661,1.474763 -0.9418656,0 -1.573907,-0.991437 Q 3.048672,12.97543 3.048672,11.376737 q 0,-2.5033796 1.0657954,-4.1764304 1.0781883,-1.6854438 2.6644883,-1.6854438 0.6196484,0 1.2764758,0.4585399 l 0.049572,-0.3098242 h 1.5491212 q -0.7435782,6.6798105 -0.7435782,7.1631355 0,0.334611 0.1363227,0.557684 0.1487156,0.223074 0.371789,0.223074 0.8303288,0 1.5119418,-1.474764 0.694007,-1.487156 0.694007,-3.7798553 0,-3.2717438 -1.338441,-5.167868 -1.3384406,-1.9085172 -3.5815679,-1.9085172 -2.404236,0 -3.8789993,2.5157727 -1.4747633,2.5157726 -1.4747633,6.9028838 0,3.519603 1.4871563,5.626408 1.4995492,2.106804 3.9161781,2.106804 1.995268,0 3.7550691,-0.855114 z M 7.8695369,7.3118433 Q 7.4977479,6.8533035 6.8533135,6.8533035 q -1.0162235,0 -1.6234789,1.189725 -0.6072555,1.189725 -0.6072555,3.1602075 0,1.12776 0.3098242,1.772194 0.3098242,0.632042 0.780757,0.632042 0.7063993,0 1.1649391,-0.681614 0.4585399,-0.681613 0.4833258,-0.966651 z"
       id="text1"
       style="font-size:25.3808px;line-height:0px;font-family:Monospace;-inkscape-font-specification:Monospace;letter-spacing:0px;word-spacing:0px;fill:#00ff41;stroke-width:1.18972"
       transform="scale(1.2330996,0.81096447)"
       aria-label="@" />
  </g>
</svg>
